<?xml version="1.0" encoding="UTF-8" standalone="no"?>
<!DOCTYPE svg PUBLIC "-//W3C//DTD SVG 1.1//EN"
 "http://www.w3.org/Graphics/SVG/1.1/DTD/svg11.dtd">
<!-- Generated by graphviz version 2.40.1 (20161225.0304)
 -->
<!-- Title: Http::Message Pages: 1 -->
<svg width="222pt" height="84pt"
 viewBox="0.00 0.00 222.00 84.00" xmlns="http://www.w3.org/2000/svg" xmlns:xlink="http://www.w3.org/1999/xlink">
<g id="graph0" class="graph" transform="scale(1 1) rotate(0) translate(4 80)">
<title>Http::Message</title>
<polygon fill="#ffffff" stroke="transparent" points="-4,4 -4,-80 218,-80 218,4 -4,4"/>
<!-- Node0 -->
<g id="node1" class="node">
<title>Node0</title>
<g id="a_node1"><a xlink:title="Http basic container.">
<polygon fill="#bfbfbf" stroke="#000000" points="58,-56.5 58,-75.5 153,-75.5 153,-56.5 58,-56.5"/>
<text text-anchor="middle" x="105.5" y="-63.5" font-family="Monospace" font-size="10.00" fill="#000000">Http::Message</text>
</a>
</g>
</g>
<!-- Node1 -->
<g id="node2" class="node">
<title>Node1</title>
<g id="a_node2"><a xlink:href="classHttp_1_1Request.html" target="_top" xlink:title="Http request container.">
<polygon fill="#ffffff" stroke="#000000" points="0,-.5 0,-19.5 95,-19.5 95,-.5 0,-.5"/>
<text text-anchor="middle" x="47.5" y="-7.5" font-family="Monospace" font-size="10.00" fill="#000000">Http::Request</text>
</a>
</g>
</g>
<!-- Node0&#45;&gt;Node1 -->
<g id="edge1" class="edge">
<title>Node0&#45;&gt;Node1</title>
<path fill="none" stroke="#191970" d="M87.9707,-49.0751C77.9917,-39.4402 65.8524,-27.7196 57.4871,-19.6427"/>
<polygon fill="#191970" stroke="#191970" points="85.772,-51.8175 95.3972,-56.2455 90.6342,-46.7817 85.772,-51.8175"/>
</g>
<!-- Node2 -->
<g id="node3" class="node">
<title>Node2</title>
<g id="a_node3"><a xlink:href="classHttp_1_1Response.html" target="_top" xlink:title="Http response container.">
<polygon fill="#ffffff" stroke="#000000" points="113,-.5 113,-19.5 214,-19.5 214,-.5 113,-.5"/>
<text text-anchor="middle" x="163.5" y="-7.5" font-family="Monospace" font-size="10.00" fill="#000000">Http::Response</text>
</a>
</g>
</g>
<!-- Node0&#45;&gt;Node2 -->
<g id="edge2" class="edge">
<title>Node0&#45;&gt;Node2</title>
<path fill="none" stroke="#191970" d="M123.0293,-49.0751C133.0083,-39.4402 145.1476,-27.7196 153.5129,-19.6427"/>
<polygon fill="#191970" stroke="#191970" points="120.3658,-46.7817 115.6028,-56.2455 125.228,-51.8175 120.3658,-46.7817"/>
</g>
</g>
</svg>
