<?xml version="1.0" encoding="UTF-8" standalone="no"?>
<!DOCTYPE svg PUBLIC "-//W3C//DTD SVG 1.1//EN"
 "http://www.w3.org/Graphics/SVG/1.1/DTD/svg11.dtd">
<!-- Generated by graphviz version 2.40.1 (20161225.0304)
 -->
<!-- Title: Graphical Class Hierarchy Pages: 1 -->
<svg width="240pt" height="66pt"
 viewBox="0.00 0.00 240.00 66.00" xmlns="http://www.w3.org/2000/svg" xmlns:xlink="http://www.w3.org/1999/xlink">
<g id="graph0" class="graph" transform="scale(1 1) rotate(0) translate(4 62)">
<title>Graphical Class Hierarchy</title>
<polygon fill="#ffffff" stroke="transparent" points="-4,4 -4,-62 236,-62 236,4 -4,4"/>
<!-- Node0 -->
<g id="node1" class="node">
<title>Node0</title>
<g id="a_node1"><a xlink:href="classHttp_1_1Message.html" target="_top" xlink:title="Http basic container.">
<polygon fill="#ffffff" stroke="#000000" points="0,-19.5 0,-38.5 95,-38.5 95,-19.5 0,-19.5"/>
<text text-anchor="middle" x="47.5" y="-26.5" font-family="Monospace" font-size="10.00" fill="#000000">Http::Message</text>
</a>
</g>
</g>
<!-- Node1 -->
<g id="node2" class="node">
<title>Node1</title>
<g id="a_node2"><a xlink:href="classHttp_1_1Request.html" target="_top" xlink:title="Http request container.">
<polygon fill="#ffffff" stroke="#000000" points="134,-38.5 134,-57.5 229,-57.5 229,-38.5 134,-38.5"/>
<text text-anchor="middle" x="181.5" y="-45.5" font-family="Monospace" font-size="10.00" fill="#000000">Http::Request</text>
</a>
</g>
</g>
<!-- Node0&#45;&gt;Node1 -->
<g id="edge1" class="edge">
<title>Node0&#45;&gt;Node1</title>
<path fill="none" stroke="#191970" d="M105.2431,-37.1875C114.6959,-38.5278 124.3993,-39.9036 133.5812,-41.2055"/>
<polygon fill="#191970" stroke="#191970" points="105.513,-33.6908 95.1207,-35.7522 104.5303,-40.6215 105.513,-33.6908"/>
</g>
<!-- Node2 -->
<g id="node3" class="node">
<title>Node2</title>
<g id="a_node3"><a xlink:href="classHttp_1_1Response.html" target="_top" xlink:title="Http response container.">
<polygon fill="#ffffff" stroke="#000000" points="131,-.5 131,-19.5 232,-19.5 232,-.5 131,-.5"/>
<text text-anchor="middle" x="181.5" y="-7.5" font-family="Monospace" font-size="10.00" fill="#000000">Http::Response</text>
</a>
</g>
</g>
<!-- Node0&#45;&gt;Node2 -->
<g id="edge2" class="edge">
<title>Node0&#45;&gt;Node2</title>
<path fill="none" stroke="#191970" d="M105.0614,-20.8383C113.6413,-19.6218 122.432,-18.3753 130.8553,-17.181"/>
<polygon fill="#191970" stroke="#191970" points="104.5303,-17.3785 95.1207,-22.2478 105.513,-24.3092 104.5303,-17.3785"/>
</g>
</g>
</svg>
